<mxfile host="app.diagrams.net" modified="2023-05-25T11:17:41.312Z" agent="Mozilla/5.0 (Windows NT 10.0; Win64; x64; rv:109.0) Gecko/20100101 Firefox/113.0" etag="DFKpCn1vEYfxZ92BTTrI" version="21.3.3" type="device">
  <diagram name="Pagina-1" id="qObnDE3NmX9A2RAI-MTO">
    <mxGraphModel dx="1434" dy="782" grid="1" gridSize="10" guides="1" tooltips="1" connect="1" arrows="1" fold="1" page="1" pageScale="1" pageWidth="827" pageHeight="1169" math="0" shadow="0">
      <root>
        <mxCell id="0" />
        <mxCell id="1" parent="0" />
        <mxCell id="z9jX6qVS_BlZvWtsuFUb-1" value="COL " style="swimlane;fontStyle=0;childLayout=stackLayout;horizontal=1;startSize=30;horizontalStack=0;resizeParent=1;resizeParentMax=0;resizeLast=0;collapsible=1;marginBottom=0;whiteSpace=wrap;html=1;" vertex="1" parent="1">
          <mxGeometry x="110" y="60" width="170" height="120" as="geometry" />
        </mxCell>
        <mxCell id="z9jX6qVS_BlZvWtsuFUb-2" value="ID&lt;span style=&quot;white-space: pre;&quot;&gt;	&lt;/span&gt;&lt;span style=&quot;white-space: pre;&quot;&gt;	&lt;/span&gt;" style="text;strokeColor=none;fillColor=none;align=left;verticalAlign=middle;spacingLeft=4;spacingRight=4;overflow=hidden;points=[[0,0.5],[1,0.5]];portConstraint=eastwest;rotatable=0;whiteSpace=wrap;html=1;" vertex="1" parent="z9jX6qVS_BlZvWtsuFUb-1">
          <mxGeometry y="30" width="170" height="30" as="geometry" />
        </mxCell>
        <mxCell id="z9jX6qVS_BlZvWtsuFUb-3" value="MODELLO" style="text;strokeColor=default;fillColor=none;align=left;verticalAlign=middle;spacingLeft=4;spacingRight=4;overflow=hidden;points=[[0,0.5],[1,0.5]];portConstraint=eastwest;rotatable=0;whiteSpace=wrap;html=1;" vertex="1" parent="z9jX6qVS_BlZvWtsuFUb-1">
          <mxGeometry y="60" width="170" height="30" as="geometry" />
        </mxCell>
        <mxCell id="z9jX6qVS_BlZvWtsuFUb-4" value="ANNO" style="text;strokeColor=none;fillColor=none;align=left;verticalAlign=middle;spacingLeft=4;spacingRight=4;overflow=hidden;points=[[0,0.5],[1,0.5]];portConstraint=eastwest;rotatable=0;whiteSpace=wrap;html=1;" vertex="1" parent="z9jX6qVS_BlZvWtsuFUb-1">
          <mxGeometry y="90" width="170" height="30" as="geometry" />
        </mxCell>
        <mxCell id="z9jX6qVS_BlZvWtsuFUb-6" value="TIPOLOGIA" style="swimlane;fontStyle=0;childLayout=stackLayout;horizontal=1;startSize=30;horizontalStack=0;resizeParent=1;resizeParentMax=0;resizeLast=0;collapsible=1;marginBottom=0;whiteSpace=wrap;html=1;" vertex="1" parent="1">
          <mxGeometry x="280" y="60" width="170" height="120" as="geometry" />
        </mxCell>
        <mxCell id="z9jX6qVS_BlZvWtsuFUb-7" value="INT" style="text;strokeColor=none;fillColor=none;align=left;verticalAlign=middle;spacingLeft=4;spacingRight=4;overflow=hidden;points=[[0,0.5],[1,0.5]];portConstraint=eastwest;rotatable=0;whiteSpace=wrap;html=1;" vertex="1" parent="z9jX6qVS_BlZvWtsuFUb-6">
          <mxGeometry y="30" width="170" height="30" as="geometry" />
        </mxCell>
        <mxCell id="z9jX6qVS_BlZvWtsuFUb-8" value="VARCHAR(50)" style="text;strokeColor=default;fillColor=none;align=left;verticalAlign=middle;spacingLeft=4;spacingRight=4;overflow=hidden;points=[[0,0.5],[1,0.5]];portConstraint=eastwest;rotatable=0;whiteSpace=wrap;html=1;" vertex="1" parent="z9jX6qVS_BlZvWtsuFUb-6">
          <mxGeometry y="60" width="170" height="30" as="geometry" />
        </mxCell>
        <mxCell id="z9jX6qVS_BlZvWtsuFUb-9" value="YEAR" style="text;strokeColor=none;fillColor=none;align=left;verticalAlign=middle;spacingLeft=4;spacingRight=4;overflow=hidden;points=[[0,0.5],[1,0.5]];portConstraint=eastwest;rotatable=0;whiteSpace=wrap;html=1;" vertex="1" parent="z9jX6qVS_BlZvWtsuFUb-6">
          <mxGeometry y="90" width="170" height="30" as="geometry" />
        </mxCell>
        <mxCell id="z9jX6qVS_BlZvWtsuFUb-10" value="ATTRIBUTO" style="swimlane;fontStyle=0;childLayout=stackLayout;horizontal=1;startSize=30;horizontalStack=0;resizeParent=1;resizeParentMax=0;resizeLast=0;collapsible=1;marginBottom=0;whiteSpace=wrap;html=1;" vertex="1" parent="1">
          <mxGeometry x="450" y="60" width="150" height="120" as="geometry" />
        </mxCell>
        <mxCell id="z9jX6qVS_BlZvWtsuFUb-11" value="Auto_inc, not null, unique" style="text;strokeColor=none;fillColor=none;align=left;verticalAlign=middle;spacingLeft=4;spacingRight=4;overflow=hidden;points=[[0,0.5],[1,0.5]];portConstraint=eastwest;rotatable=0;whiteSpace=wrap;html=1;" vertex="1" parent="z9jX6qVS_BlZvWtsuFUb-10">
          <mxGeometry y="30" width="150" height="30" as="geometry" />
        </mxCell>
        <mxCell id="z9jX6qVS_BlZvWtsuFUb-12" value="NOT NULL" style="text;strokeColor=default;fillColor=none;align=left;verticalAlign=middle;spacingLeft=4;spacingRight=4;overflow=hidden;points=[[0,0.5],[1,0.5]];portConstraint=eastwest;rotatable=0;whiteSpace=wrap;html=1;" vertex="1" parent="z9jX6qVS_BlZvWtsuFUb-10">
          <mxGeometry y="60" width="150" height="30" as="geometry" />
        </mxCell>
        <mxCell id="z9jX6qVS_BlZvWtsuFUb-13" value="NOT NULL" style="text;strokeColor=none;fillColor=none;align=left;verticalAlign=middle;spacingLeft=4;spacingRight=4;overflow=hidden;points=[[0,0.5],[1,0.5]];portConstraint=eastwest;rotatable=0;whiteSpace=wrap;html=1;" vertex="1" parent="z9jX6qVS_BlZvWtsuFUb-10">
          <mxGeometry y="90" width="150" height="30" as="geometry" />
        </mxCell>
        <mxCell id="z9jX6qVS_BlZvWtsuFUb-14" value="PRIMARY" style="swimlane;fontStyle=0;childLayout=stackLayout;horizontal=1;startSize=30;horizontalStack=0;resizeParent=1;resizeParentMax=0;resizeLast=0;collapsible=1;marginBottom=0;whiteSpace=wrap;html=1;" vertex="1" parent="1">
          <mxGeometry x="600" y="60" width="160" height="90" as="geometry">
            <mxRectangle x="600" y="60" width="50" height="40" as="alternateBounds" />
          </mxGeometry>
        </mxCell>
        <mxCell id="z9jX6qVS_BlZvWtsuFUb-15" value="Primary Key" style="text;strokeColor=none;fillColor=none;align=left;verticalAlign=middle;spacingLeft=4;spacingRight=4;overflow=hidden;points=[[0,0.5],[1,0.5]];portConstraint=eastwest;rotatable=0;whiteSpace=wrap;html=1;" vertex="1" parent="z9jX6qVS_BlZvWtsuFUb-14">
          <mxGeometry y="30" width="160" height="30" as="geometry" />
        </mxCell>
        <mxCell id="z9jX6qVS_BlZvWtsuFUb-16" value="Secondary Key" style="text;strokeColor=default;fillColor=none;align=left;verticalAlign=middle;spacingLeft=4;spacingRight=4;overflow=hidden;points=[[0,0.5],[1,0.5]];portConstraint=eastwest;rotatable=0;whiteSpace=wrap;html=1;" vertex="1" parent="z9jX6qVS_BlZvWtsuFUb-14">
          <mxGeometry y="60" width="160" height="30" as="geometry" />
        </mxCell>
        <mxCell id="z9jX6qVS_BlZvWtsuFUb-19" value="Secondary Key" style="text;strokeColor=default;fillColor=none;align=left;verticalAlign=middle;spacingLeft=4;spacingRight=4;overflow=hidden;points=[[0,0.5],[1,0.5]];portConstraint=eastwest;rotatable=0;whiteSpace=wrap;html=1;" vertex="1" parent="1">
          <mxGeometry x="600" y="180" width="160" height="30" as="geometry" />
        </mxCell>
        <mxCell id="z9jX6qVS_BlZvWtsuFUb-21" value="Secondary Key" style="text;strokeColor=default;fillColor=none;align=left;verticalAlign=middle;spacingLeft=4;spacingRight=4;overflow=hidden;points=[[0,0.5],[1,0.5]];portConstraint=eastwest;rotatable=0;whiteSpace=wrap;html=1;" vertex="1" parent="1">
          <mxGeometry x="600" y="210" width="160" height="30" as="geometry" />
        </mxCell>
        <mxCell id="z9jX6qVS_BlZvWtsuFUb-22" value="NOT NULL" style="text;strokeColor=default;fillColor=none;align=left;verticalAlign=middle;spacingLeft=4;spacingRight=4;overflow=hidden;points=[[0,0.5],[1,0.5]];portConstraint=eastwest;rotatable=0;whiteSpace=wrap;html=1;" vertex="1" parent="1">
          <mxGeometry x="450" y="180" width="150" height="30" as="geometry" />
        </mxCell>
        <mxCell id="z9jX6qVS_BlZvWtsuFUb-23" value="NOT NULL" style="text;strokeColor=default;fillColor=none;align=left;verticalAlign=middle;spacingLeft=4;spacingRight=4;overflow=hidden;points=[[0,0.5],[1,0.5]];portConstraint=eastwest;rotatable=0;whiteSpace=wrap;html=1;" vertex="1" parent="1">
          <mxGeometry x="450" y="210" width="150" height="30" as="geometry" />
        </mxCell>
        <mxCell id="z9jX6qVS_BlZvWtsuFUb-26" value="MEDIUMINT" style="text;strokeColor=default;fillColor=none;align=left;verticalAlign=middle;spacingLeft=4;spacingRight=4;overflow=hidden;points=[[0,0.5],[1,0.5]];portConstraint=eastwest;rotatable=0;whiteSpace=wrap;html=1;" vertex="1" parent="1">
          <mxGeometry x="280" y="180" width="170" height="30" as="geometry" />
        </mxCell>
        <mxCell id="z9jX6qVS_BlZvWtsuFUb-27" value="DECIMAL(11,2)" style="text;strokeColor=default;fillColor=none;align=left;verticalAlign=middle;spacingLeft=4;spacingRight=4;overflow=hidden;points=[[0,0.5],[1,0.5]];portConstraint=eastwest;rotatable=0;whiteSpace=wrap;html=1;" vertex="1" parent="1">
          <mxGeometry x="280" y="210" width="170" height="30" as="geometry" />
        </mxCell>
        <mxCell id="z9jX6qVS_BlZvWtsuFUb-30" value="KM " style="text;strokeColor=default;fillColor=none;align=left;verticalAlign=middle;spacingLeft=4;spacingRight=4;overflow=hidden;points=[[0,0.5],[1,0.5]];portConstraint=eastwest;rotatable=0;whiteSpace=wrap;html=1;" vertex="1" parent="1">
          <mxGeometry x="110" y="180" width="170" height="30" as="geometry" />
        </mxCell>
        <mxCell id="z9jX6qVS_BlZvWtsuFUb-31" value="PREZZO" style="text;strokeColor=default;fillColor=none;align=left;verticalAlign=middle;spacingLeft=4;spacingRight=4;overflow=hidden;points=[[0,0.5],[1,0.5]];portConstraint=eastwest;rotatable=0;whiteSpace=wrap;html=1;" vertex="1" parent="1">
          <mxGeometry x="110" y="210" width="170" height="30" as="geometry" />
        </mxCell>
        <mxCell id="z9jX6qVS_BlZvWtsuFUb-34" value="CARBURANTE" style="text;strokeColor=default;fillColor=none;align=left;verticalAlign=middle;spacingLeft=4;spacingRight=4;overflow=hidden;points=[[0,0.5],[1,0.5]];portConstraint=eastwest;rotatable=0;whiteSpace=wrap;html=1;" vertex="1" parent="1">
          <mxGeometry x="110" y="300" width="170" height="30" as="geometry" />
        </mxCell>
        <mxCell id="z9jX6qVS_BlZvWtsuFUb-35" value="CARROZZERIA" style="text;strokeColor=default;fillColor=none;align=left;verticalAlign=middle;spacingLeft=4;spacingRight=4;overflow=hidden;points=[[0,0.5],[1,0.5]];portConstraint=eastwest;rotatable=0;whiteSpace=wrap;html=1;" vertex="1" parent="1">
          <mxGeometry x="110" y="270" width="170" height="30" as="geometry" />
        </mxCell>
        <mxCell id="z9jX6qVS_BlZvWtsuFUb-36" value="POTENZA" style="text;strokeColor=default;fillColor=none;align=left;verticalAlign=middle;spacingLeft=4;spacingRight=4;overflow=hidden;points=[[0,0.5],[1,0.5]];portConstraint=eastwest;rotatable=0;whiteSpace=wrap;html=1;" vertex="1" parent="1">
          <mxGeometry x="110" y="330" width="170" height="30" as="geometry" />
        </mxCell>
        <mxCell id="z9jX6qVS_BlZvWtsuFUb-37" value="CAMBIO" style="text;strokeColor=default;fillColor=none;align=left;verticalAlign=middle;spacingLeft=4;spacingRight=4;overflow=hidden;points=[[0,0.5],[1,0.5]];portConstraint=eastwest;rotatable=0;whiteSpace=wrap;html=1;" vertex="1" parent="1">
          <mxGeometry x="110" y="360" width="170" height="30" as="geometry" />
        </mxCell>
        <mxCell id="z9jX6qVS_BlZvWtsuFUb-38" value="N. POSTI" style="text;strokeColor=default;fillColor=none;align=left;verticalAlign=middle;spacingLeft=4;spacingRight=4;overflow=hidden;points=[[0,0.5],[1,0.5]];portConstraint=eastwest;rotatable=0;whiteSpace=wrap;html=1;" vertex="1" parent="1">
          <mxGeometry x="110" y="420" width="170" height="30" as="geometry" />
        </mxCell>
        <mxCell id="z9jX6qVS_BlZvWtsuFUb-39" value="N. PORTE" style="text;strokeColor=default;fillColor=none;align=left;verticalAlign=middle;spacingLeft=4;spacingRight=4;overflow=hidden;points=[[0,0.5],[1,0.5]];portConstraint=eastwest;rotatable=0;whiteSpace=wrap;html=1;" vertex="1" parent="1">
          <mxGeometry x="110" y="390" width="170" height="30" as="geometry" />
        </mxCell>
        <mxCell id="z9jX6qVS_BlZvWtsuFUb-40" value="VARCHAR(15)" style="text;strokeColor=default;fillColor=none;align=left;verticalAlign=middle;spacingLeft=4;spacingRight=4;overflow=hidden;points=[[0,0.5],[1,0.5]];portConstraint=eastwest;rotatable=0;whiteSpace=wrap;html=1;" vertex="1" parent="1">
          <mxGeometry x="280" y="300" width="170" height="30" as="geometry" />
        </mxCell>
        <mxCell id="z9jX6qVS_BlZvWtsuFUb-41" value="VARCHAR(20)" style="text;strokeColor=default;fillColor=none;align=left;verticalAlign=middle;spacingLeft=4;spacingRight=4;overflow=hidden;points=[[0,0.5],[1,0.5]];portConstraint=eastwest;rotatable=0;whiteSpace=wrap;html=1;" vertex="1" parent="1">
          <mxGeometry x="280" y="270" width="170" height="30" as="geometry" />
        </mxCell>
        <mxCell id="z9jX6qVS_BlZvWtsuFUb-42" value="VARCHAR(10)" style="text;strokeColor=default;fillColor=none;align=left;verticalAlign=middle;spacingLeft=4;spacingRight=4;overflow=hidden;points=[[0,0.5],[1,0.5]];portConstraint=eastwest;rotatable=0;whiteSpace=wrap;html=1;" vertex="1" parent="1">
          <mxGeometry x="280" y="330" width="170" height="30" as="geometry" />
        </mxCell>
        <mxCell id="z9jX6qVS_BlZvWtsuFUb-43" value="VARCHAR(10)" style="text;strokeColor=default;fillColor=none;align=left;verticalAlign=middle;spacingLeft=4;spacingRight=4;overflow=hidden;points=[[0,0.5],[1,0.5]];portConstraint=eastwest;rotatable=0;whiteSpace=wrap;html=1;" vertex="1" parent="1">
          <mxGeometry x="280" y="360" width="170" height="30" as="geometry" />
        </mxCell>
        <mxCell id="z9jX6qVS_BlZvWtsuFUb-44" value="TINYINT" style="text;strokeColor=default;fillColor=none;align=left;verticalAlign=middle;spacingLeft=4;spacingRight=4;overflow=hidden;points=[[0,0.5],[1,0.5]];portConstraint=eastwest;rotatable=0;whiteSpace=wrap;html=1;" vertex="1" parent="1">
          <mxGeometry x="280" y="420" width="170" height="30" as="geometry" />
        </mxCell>
        <mxCell id="z9jX6qVS_BlZvWtsuFUb-45" value="TINYINT" style="text;strokeColor=default;fillColor=none;align=left;verticalAlign=middle;spacingLeft=4;spacingRight=4;overflow=hidden;points=[[0,0.5],[1,0.5]];portConstraint=eastwest;rotatable=0;whiteSpace=wrap;html=1;" vertex="1" parent="1">
          <mxGeometry x="280" y="390" width="170" height="30" as="geometry" />
        </mxCell>
        <mxCell id="z9jX6qVS_BlZvWtsuFUb-46" value="NOT NULL" style="text;strokeColor=default;fillColor=none;align=left;verticalAlign=middle;spacingLeft=4;spacingRight=4;overflow=hidden;points=[[0,0.5],[1,0.5]];portConstraint=eastwest;rotatable=0;whiteSpace=wrap;html=1;" vertex="1" parent="1">
          <mxGeometry x="450" y="300" width="150" height="30" as="geometry" />
        </mxCell>
        <mxCell id="z9jX6qVS_BlZvWtsuFUb-47" value="NULL" style="text;strokeColor=default;fillColor=none;align=left;verticalAlign=middle;spacingLeft=4;spacingRight=4;overflow=hidden;points=[[0,0.5],[1,0.5]];portConstraint=eastwest;rotatable=0;whiteSpace=wrap;html=1;" vertex="1" parent="1">
          <mxGeometry x="450" y="270" width="150" height="30" as="geometry" />
        </mxCell>
        <mxCell id="z9jX6qVS_BlZvWtsuFUb-48" value="NOT NULL" style="text;strokeColor=default;fillColor=none;align=left;verticalAlign=middle;spacingLeft=4;spacingRight=4;overflow=hidden;points=[[0,0.5],[1,0.5]];portConstraint=eastwest;rotatable=0;whiteSpace=wrap;html=1;" vertex="1" parent="1">
          <mxGeometry x="450" y="330" width="150" height="30" as="geometry" />
        </mxCell>
        <mxCell id="z9jX6qVS_BlZvWtsuFUb-49" value="NOT NULL" style="text;strokeColor=default;fillColor=none;align=left;verticalAlign=middle;spacingLeft=4;spacingRight=4;overflow=hidden;points=[[0,0.5],[1,0.5]];portConstraint=eastwest;rotatable=0;whiteSpace=wrap;html=1;" vertex="1" parent="1">
          <mxGeometry x="450" y="360" width="150" height="30" as="geometry" />
        </mxCell>
        <mxCell id="z9jX6qVS_BlZvWtsuFUb-50" value="NULL" style="text;strokeColor=default;fillColor=none;align=left;verticalAlign=middle;spacingLeft=4;spacingRight=4;overflow=hidden;points=[[0,0.5],[1,0.5]];portConstraint=eastwest;rotatable=0;whiteSpace=wrap;html=1;" vertex="1" parent="1">
          <mxGeometry x="450" y="420" width="150" height="30" as="geometry" />
        </mxCell>
        <mxCell id="z9jX6qVS_BlZvWtsuFUb-51" value="NULL" style="text;strokeColor=default;fillColor=none;align=left;verticalAlign=middle;spacingLeft=4;spacingRight=4;overflow=hidden;points=[[0,0.5],[1,0.5]];portConstraint=eastwest;rotatable=0;whiteSpace=wrap;html=1;" vertex="1" parent="1">
          <mxGeometry x="450" y="390" width="150" height="30" as="geometry" />
        </mxCell>
        <mxCell id="z9jX6qVS_BlZvWtsuFUb-52" value="Secondary Key" style="text;strokeColor=default;fillColor=none;align=left;verticalAlign=middle;spacingLeft=4;spacingRight=4;overflow=hidden;points=[[0,0.5],[1,0.5]];portConstraint=eastwest;rotatable=0;whiteSpace=wrap;html=1;" vertex="1" parent="1">
          <mxGeometry x="600" y="300" width="160" height="30" as="geometry" />
        </mxCell>
        <mxCell id="z9jX6qVS_BlZvWtsuFUb-53" value="" style="text;strokeColor=default;fillColor=none;align=left;verticalAlign=middle;spacingLeft=4;spacingRight=4;overflow=hidden;points=[[0,0.5],[1,0.5]];portConstraint=eastwest;rotatable=0;whiteSpace=wrap;html=1;" vertex="1" parent="1">
          <mxGeometry x="600" y="270" width="160" height="30" as="geometry" />
        </mxCell>
        <mxCell id="z9jX6qVS_BlZvWtsuFUb-54" value="" style="text;strokeColor=default;fillColor=none;align=left;verticalAlign=middle;spacingLeft=4;spacingRight=4;overflow=hidden;points=[[0,0.5],[1,0.5]];portConstraint=eastwest;rotatable=0;whiteSpace=wrap;html=1;" vertex="1" parent="1">
          <mxGeometry x="600" y="330" width="160" height="30" as="geometry" />
        </mxCell>
        <mxCell id="z9jX6qVS_BlZvWtsuFUb-55" value="" style="text;strokeColor=default;fillColor=none;align=left;verticalAlign=middle;spacingLeft=4;spacingRight=4;overflow=hidden;points=[[0,0.5],[1,0.5]];portConstraint=eastwest;rotatable=0;whiteSpace=wrap;html=1;" vertex="1" parent="1">
          <mxGeometry x="600" y="360" width="160" height="30" as="geometry" />
        </mxCell>
        <mxCell id="z9jX6qVS_BlZvWtsuFUb-56" value="" style="text;strokeColor=default;fillColor=none;align=left;verticalAlign=middle;spacingLeft=4;spacingRight=4;overflow=hidden;points=[[0,0.5],[1,0.5]];portConstraint=eastwest;rotatable=0;whiteSpace=wrap;html=1;" vertex="1" parent="1">
          <mxGeometry x="600" y="420" width="160" height="30" as="geometry" />
        </mxCell>
        <mxCell id="z9jX6qVS_BlZvWtsuFUb-57" value="" style="text;strokeColor=default;fillColor=none;align=left;verticalAlign=middle;spacingLeft=4;spacingRight=4;overflow=hidden;points=[[0,0.5],[1,0.5]];portConstraint=eastwest;rotatable=0;whiteSpace=wrap;html=1;" vertex="1" parent="1">
          <mxGeometry x="600" y="390" width="160" height="30" as="geometry" />
        </mxCell>
        <mxCell id="z9jX6qVS_BlZvWtsuFUb-58" value="MARCA" style="text;strokeColor=default;fillColor=none;align=left;verticalAlign=middle;spacingLeft=4;spacingRight=4;overflow=hidden;points=[[0,0.5],[1,0.5]];portConstraint=eastwest;rotatable=0;whiteSpace=wrap;html=1;" vertex="1" parent="1">
          <mxGeometry x="110" y="240" width="170" height="30" as="geometry" />
        </mxCell>
        <mxCell id="z9jX6qVS_BlZvWtsuFUb-59" value="VARCHAR(15)" style="text;strokeColor=default;fillColor=none;align=left;verticalAlign=middle;spacingLeft=4;spacingRight=4;overflow=hidden;points=[[0,0.5],[1,0.5]];portConstraint=eastwest;rotatable=0;whiteSpace=wrap;html=1;" vertex="1" parent="1">
          <mxGeometry x="280" y="240" width="170" height="30" as="geometry" />
        </mxCell>
        <mxCell id="z9jX6qVS_BlZvWtsuFUb-60" value="NOT NULL" style="text;strokeColor=default;fillColor=none;align=left;verticalAlign=middle;spacingLeft=4;spacingRight=4;overflow=hidden;points=[[0,0.5],[1,0.5]];portConstraint=eastwest;rotatable=0;whiteSpace=wrap;html=1;" vertex="1" parent="1">
          <mxGeometry x="450" y="240" width="150" height="30" as="geometry" />
        </mxCell>
        <mxCell id="z9jX6qVS_BlZvWtsuFUb-61" value="Secondary Key" style="text;strokeColor=default;fillColor=none;align=left;verticalAlign=middle;spacingLeft=4;spacingRight=4;overflow=hidden;points=[[0,0.5],[1,0.5]];portConstraint=eastwest;rotatable=0;whiteSpace=wrap;html=1;" vertex="1" parent="1">
          <mxGeometry x="600" y="240" width="160" height="30" as="geometry" />
        </mxCell>
        <mxCell id="z9jX6qVS_BlZvWtsuFUb-62" value="Secondary Key" style="text;strokeColor=default;fillColor=none;align=left;verticalAlign=middle;spacingLeft=4;spacingRight=4;overflow=hidden;points=[[0,0.5],[1,0.5]];portConstraint=eastwest;rotatable=0;whiteSpace=wrap;html=1;" vertex="1" parent="1">
          <mxGeometry x="600" y="150" width="160" height="30" as="geometry" />
        </mxCell>
      </root>
    </mxGraphModel>
  </diagram>
</mxfile>
